<svg xmlns="http://www.w3.org/2000/svg" viewBox="0 0 512 512" role="img" aria-labelledby="t d">
<title id="t">VANES AI six turbine wheel</title>
<desc id="d">A bold six-blade turbine wheel in cyan to magenta neon on a dark rounded square.</desc>
<defs>
  <radialGradient id="b" cx=".5" cy=".42" r=".9"><stop stop-color="#101a3a"/><stop offset=".7" stop-color="#050916"/><stop offset="1" stop-color="#02040c"/></radialGradient>
  <linearGradient id="n" x1="0" y1="0" x2="1" y2="1"><stop stop-color="#eaffff"/><stop offset=".28" stop-color="#27e9ff"/><stop offset=".66" stop-color="#7654ff"/><stop offset="1" stop-color="#ff2bd6"/></linearGradient>
  <filter id="g" x="-60%" y="-60%" width="220%" height="220%"><feGaussianBlur stdDeviation="8" result="x"/><feMerge><feMergeNode in="x"/><feMergeNode in="SourceGraphic"/></feMerge></filter>
</defs>
<rect width="512" height="512" rx="112" fill="url(#b)"/>
<g transform="translate(256 256)" filter="url(#g)">
  <circle r="206" fill="none" stroke="url(#n)" stroke-width="16"/>
  <g fill="url(#n)" stroke="#eaffff" stroke-width="7">
    <path d="M-18-40C-90-122-74-164 2-182c48 52 50 112 18 164-12 15-24 22-38 18Z"/>
    <path d="M-18-40C-90-122-74-164 2-182c48 52 50 112 18 164-12 15-24 22-38 18Z" transform="rotate(60)"/>
    <path d="M-18-40C-90-122-74-164 2-182c48 52 50 112 18 164-12 15-24 22-38 18Z" transform="rotate(120)"/>
    <path d="M-18-40C-90-122-74-164 2-182c48 52 50 112 18 164-12 15-24 22-38 18Z" transform="rotate(180)"/>
    <path d="M-18-40C-90-122-74-164 2-182c48 52 50 112 18 164-12 15-24 22-38 18Z" transform="rotate(240)"/>
    <path d="M-18-40C-90-122-74-164 2-182c48 52 50 112 18 164-12 15-24 22-38 18Z" transform="rotate(300)"/>
  </g>
  <circle r="74" fill="#070d20" stroke="url(#n)" stroke-width="16"/>
  <circle r="42" fill="#101936" stroke="#d7fbff" stroke-width="6"/>
  <circle r="19" fill="url(#n)"/>
</g>
</svg>
